<?xml version="1.0" standalone="no"?>
<!DOCTYPE svg PUBLIC "-//W3C//DTD SVG 20010904//EN"
 "http://www.w3.org/TR/2001/REC-SVG-20010904/DTD/svg10.dtd">
<svg version="1.0" xmlns="http://www.w3.org/2000/svg"
 width="2718.000000pt" height="1212.000000pt" viewBox="0 0 2718.000000 1212.000000"
 preserveAspectRatio="xMidYMid meet">

<g transform="translate(0.000000,1212.000000) scale(0.100000,-0.100000)"
fill="#ffffff" stroke="none">
<path d="M8422 8688 l-1322 -763 0 -1162 c0 -667 -4 -1163 -9 -1163 -5 0 -427
241 -937 536 -511 295 -936 539 -945 541 -15 4 -2539 -1445 -2539 -1457 1 -5
4413 -2553 4423 -2554 3 -1 602 343 1331 764 l1326 765 0 2628 c0 1445 -1
2627 -3 2627 -2 0 -598 -343 -1325 -762z"/>
<path d="M14175 7512 l-290 -168 -3 -1307 -2 -1307 300 0 300 0 0 1475 c0 811
-3 1475 -7 1475 -5 0 -138 -76 -298 -168z"/>
<path d="M20608 7512 l-288 -167 0 -985 c0 -623 4 -1017 10 -1070 38 -310 160
-464 421 -531 77 -20 115 -22 457 -26 l372 -5 0 250 0 251 -257 3 c-254 3
-259 3 -303 28 -29 17 -53 41 -70 70 l-25 45 -3 588 -3 587 331 0 330 0 0 240
0 240 -330 0 -330 0 0 325 c0 254 -3 325 -12 324 -7 0 -142 -76 -300 -167z"/>
<path d="M23850 7400 l0 -230 333 2 332 3 3 228 2 227 -335 0 -335 0 0 -230z"/>
<path d="M11855 7068 c-288 -32 -513 -126 -656 -275 -103 -107 -157 -202 -208
-366 -88 -286 -88 -800 0 -1099 121 -411 430 -604 1040 -647 435 -32 851 13
1189 127 l85 29 3 256 c1 142 1 257 -1 257 -3 0 -52 -18 -110 -40 -316 -118
-714 -171 -1069 -141 -301 25 -448 102 -529 275 -27 57 -58 175 -59 219 0 16
50 17 913 17 l914 0 6 98 c30 449 -30 761 -186 968 -131 173 -349 276 -676
319 -119 16 -525 18 -656 3z m622 -491 c129 -37 206 -99 254 -201 30 -65 59
-177 59 -233 l0 -33 -626 0 -626 0 7 48 c37 257 149 383 380 426 107 20 475
16 552 -7z"/>
<path d="M15780 7074 c-177 -16 -405 -56 -572 -101 l-98 -26 0 -258 c0 -143 1
-259 3 -259 1 0 42 14 91 30 121 41 259 75 412 102 113 20 165 22 409 23 234
0 291 -3 348 -18 210 -53 296 -159 314 -385 l6 -85 -54 7 c-244 28 -652 41
-853 27 -247 -18 -409 -55 -541 -124 -78 -41 -184 -146 -218 -217 -111 -230
-96 -629 31 -826 136 -210 411 -309 807 -290 290 13 544 86 798 227 60 33 110
59 112 57 3 -3 37 -118 55 -185 l11 -43 219 0 220 0 0 789 c0 809 -2 869 -41
1019 -60 236 -218 396 -464 472 -168 51 -268 62 -620 65 -181 1 -350 1 -375
-1z m690 -1384 c74 -5 154 -13 178 -16 l42 -5 0 -148 0 -148 -107 -56 c-120
-61 -237 -105 -358 -133 -116 -27 -436 -27 -513 0 -104 36 -159 109 -169 225
-15 177 68 265 275 291 80 11 462 5 652 -10z"/>
<path d="M18520 7069 c-445 -47 -664 -191 -737 -485 -24 -99 -25 -374 0 -464
56 -205 184 -326 420 -394 127 -37 227 -52 562 -87 343 -35 425 -48 501 -83
79 -36 96 -69 92 -178 -3 -100 -18 -128 -86 -166 -81 -45 -165 -56 -452 -56
-151 0 -315 5 -380 13 -151 16 -375 61 -527 106 -67 19 -125 35 -128 35 -3 0
-4 -116 -3 -257 l3 -258 105 -26 c125 -32 311 -64 470 -81 157 -16 695 -16
835 0 445 53 649 184 727 469 29 105 31 381 5 487 -50 199 -161 316 -369 391
-135 48 -269 71 -607 105 -436 44 -518 63 -574 129 -24 29 -27 40 -27 110 0
64 4 84 23 112 30 47 113 86 210 99 100 13 484 13 618 0 164 -16 459 -71 572
-106 16 -5 17 11 17 245 l0 250 -37 10 c-70 19 -179 40 -319 62 -118 18 -190
22 -484 24 -190 2 -383 -1 -430 -6z"/>
<path d="M23159 7064 c-160 -29 -354 -104 -529 -206 l-95 -56 -17 57 c-9 31
-24 82 -33 114 l-16 57 -222 -2 -222 -3 -3 -1147 -2 -1148 300 0 300 0 0 819
0 818 108 46 c210 89 370 122 637 133 l165 7 0 264 0 263 -147 -1 c-82 0 -182
-7 -224 -15z"/>
<path d="M23890 5840 l0 -1110 295 0 295 0 0 1110 0 1110 -295 0 -295 0 0
-1110z"/>
<path d="M15373 4140 c-93 -19 -156 -71 -184 -155 -8 -23 -14 -82 -14 -140 0
-157 35 -227 134 -274 52 -24 66 -26 191 -26 81 0 156 5 188 13 l52 14 0 169
0 169 -130 0 -130 0 0 -65 0 -65 55 0 55 0 0 -50 c0 -45 -2 -50 -25 -56 -49
-12 -153 1 -182 22 -42 31 -53 61 -53 149 0 87 11 118 52 148 35 26 152 34
254 17 42 -6 77 -10 79 -8 1 1 4 30 6 63 l4 60 -55 12 c-64 13 -236 15 -297 3z"/>
<path d="M13000 3845 l0 -295 270 0 270 0 0 65 0 65 -195 0 -195 0 0 50 0 49
158 3 157 3 3 63 3 62 -161 0 -160 0 0 50 0 50 190 0 190 0 0 65 0 65 -265 0
-265 0 0 -295z"/>
<path d="M14070 3845 l0 -295 70 0 70 0 2 202 3 202 144 -202 144 -202 74 0
73 0 0 295 0 295 -75 0 -75 0 0 -177 0 -176 -126 176 -126 177 -89 0 -89 0 0
-295z"/>
<path d="M16270 3845 l0 -295 270 0 270 0 0 65 0 65 -195 0 -195 0 0 50 0 50
160 0 160 0 0 65 0 65 -160 0 -160 0 0 50 0 50 195 0 195 0 0 65 0 65 -270 0
-270 0 0 -295z"/>
<path d="M17340 3845 l0 -295 70 0 70 0 2 205 3 206 145 -205 145 -205 73 -1
72 0 0 295 0 295 -70 0 -70 0 -2 -177 -3 -178 -125 177 -125 177 -92 1 -93 0
0 -295z"/>
<path d="M18470 3845 l0 -295 75 0 75 0 0 115 0 115 140 0 140 0 0 -115 0
-115 75 0 75 0 0 295 0 295 -75 0 -75 0 0 -110 0 -110 -140 0 -140 0 0 110 0
110 -75 0 -75 0 0 -295z"/>
<path d="M19767 4133 c-4 -6 -215 -519 -234 -571 -4 -10 12 -12 72 -10 l78 3
20 53 20 53 131 -3 130 -3 21 -52 20 -53 78 0 c60 0 78 3 75 13 -2 7 -55 140
-118 295 l-115 282 -87 0 c-48 0 -89 -3 -91 -7z m128 -246 c20 -54 35 -101 32
-103 -2 -3 -39 -4 -80 -2 l-75 3 32 85 c18 47 36 94 40 104 3 10 8 17 10 15 3
-2 21 -48 41 -102z"/>
<path d="M20660 3845 l0 -295 75 0 75 0 0 100 0 100 63 0 62 -1 75 -99 75
-100 87 0 c49 0 88 3 88 6 0 3 -30 44 -67 92 -37 48 -71 92 -75 98 -6 8 4 18
29 30 95 47 115 249 31 319 -46 38 -90 45 -310 45 l-208 0 0 -295z m402 148
c22 -20 24 -76 2 -97 -12 -13 -40 -16 -135 -16 l-119 0 0 65 0 65 117 0 c94 0
120 -3 135 -17z"/>
<path d="M21760 3845 l0 -295 75 0 75 0 0 295 0 295 -75 0 -75 0 0 -295z"/>
<path d="M22513 3863 c-62 -153 -115 -286 -119 -295 -5 -16 2 -18 69 -18 l75
0 22 55 23 56 130 -3 130 -3 20 -52 20 -53 79 0 c71 0 79 2 74 18 -4 9 -57
141 -119 292 l-113 275 -89 3 -90 2 -112 -277z m271 -60 c7 -23 6 -23 -73 -23
-45 0 -81 1 -81 3 0 2 50 132 72 187 9 23 13 19 43 -60 18 -47 35 -95 39 -107z"/>
</g>
</svg>
